<?xml version="1.0" encoding="UTF-8" standalone="no"?>
<!-- Created with Inkscape (http://www.inkscape.org/) -->

<svg
   xmlns:dc="http://purl.org/dc/elements/1.1/"
   xmlns:cc="http://creativecommons.org/ns#"
   xmlns:rdf="http://www.w3.org/1999/02/22-rdf-syntax-ns#"
   xmlns:svg="http://www.w3.org/2000/svg"
   xmlns="http://www.w3.org/2000/svg"
   xmlns:sodipodi="http://sodipodi.sourceforge.net/DTD/sodipodi-0.dtd"
   xmlns:inkscape="http://www.inkscape.org/namespaces/inkscape"
   width="64"
   height="64"
   viewBox="0 0 64.000001 64.000001"
   id="svg2"
   version="1.1"
   inkscape:version="0.91 r13725"
   sodipodi:docname="Extension.svg">
  <defs
     id="defs4" />
  <sodipodi:namedview
     id="base"
     pagecolor="#ffffff"
     bordercolor="#666666"
     borderopacity="1.0"
     inkscape:pageopacity="0.0"
     inkscape:pageshadow="2"
     inkscape:zoom="2"
     inkscape:cx="42.142857"
     inkscape:cy="20"
     inkscape:document-units="px"
     inkscape:current-layer="layer1"
     showgrid="false"
     units="px"
     inkscape:window-width="1440"
     inkscape:window-height="851"
     inkscape:window-x="0"
     inkscape:window-y="1"
     inkscape:window-maximized="1" />
  <metadata
     id="metadata7">
    <rdf:RDF>
      <cc:Work
         rdf:about="">
        <dc:format>image/svg+xml</dc:format>
        <dc:type
           rdf:resource="http://purl.org/dc/dcmitype/StillImage" />
        <dc:title></dc:title>
      </cc:Work>
    </rdf:RDF>
  </metadata>
  <g
     inkscape:label="Layer 1"
     inkscape:groupmode="layer"
     id="layer1"
     transform="translate(0,-988.36216)">
    <rect
       style="fill:#000000;fill-opacity:1;stroke:none;stroke-width:0.5;stroke-linecap:square;stroke-miterlimit:4;stroke-dasharray:none;stroke-opacity:1"
       id="rect4368"
       width="64"
       height="64"
       x="0"
       y="987.86218" />
    <path
       inkscape:connector-curvature="0"
       d="m 44.794042,1049.0469 c 6.61e-4,0 6.61e-4,0 0.0013,0 0.767996,0 1.558445,-0.038 2.350874,-0.1102 0.289236,-0.027 0.526304,-0.2392 0.585075,-0.5231 0.05877,-0.2846 -0.07396,-0.5732 -0.328197,-0.7131 -5.201637,-2.8633 -7.869482,-6.3051 -8.341638,-8.1851 8.600499,-2.8033 14.125712,-8.701 14.125712,-15.1374 0,-9.2821 -11.290795,-16.8338 -25.168214,-16.8338 -13.877417,0 -25.168214,7.5517 -25.168214,16.8338 0,9.2357 11.181837,16.7579 24.967465,16.8305 0.281974,0.2067 0.68347,0.5824 1.137796,1.007 2.370024,2.2182 7.302896,6.8321 15.838019,6.8321 z m 0.08057,-1.3208 c -0.02642,0 -0.05283,0 -0.07925,0 -8.015422,8e-4 -12.5184,-4.2123 -14.937952,-6.476 -0.638565,-0.5971 -1.099496,-1.0287 -1.499011,-1.2686 -0.103015,-0.062 -0.2199,-0.095 -0.340085,-0.095 -13.149703,0 -23.847499,-6.9575 -23.847499,-15.5104 0,-8.5537 10.697796,-15.5133 23.847499,-15.5133 13.149704,0 23.848159,6.9603 23.848159,15.514 0,5.9775 -5.39116,11.4915 -13.733459,14.0458 -0.287255,0.089 -0.47876,0.3578 -0.466213,0.6576 0.0865,2.1476 2.575395,5.6395 7.207805,8.6454 z m -5.395123,-24.266 c 0,1.4276 -1.153646,2.5839 -2.58398,2.5839 -1.426372,0 -2.58332,-1.1556 -2.58332,-2.5839 0,-1.4285 1.156286,-2.5861 2.58332,-2.5861 1.430995,0 2.58398,1.1583 2.58398,2.5861 z m -8.875869,0 c 0,1.4276 -1.157606,2.5839 -2.58464,2.5839 -1.427032,0 -2.58332,-1.1556 -2.58332,-2.5839 0,-1.4285 1.156948,-2.5854 2.58332,-2.5854 1.426372,0 2.58464,1.1576 2.58464,2.5854 z m -8.877188,0 c 0,1.4276 -1.157608,2.5839 -2.58398,2.5839 -1.429014,0 -2.587282,-1.1556 -2.587282,-2.5839 0,-1.4285 1.158268,-2.5861 2.587282,-2.5861 1.426372,0 2.58398,1.1583 2.58398,2.5861 z"
       id="path4282"
       style="fill:#ffffff;fill-opacity:1" />
    <path
       inkscape:connector-curvature="0"
       d="m 30.86874,1035.863 c -0.216189,0 -0.432887,-0.067 -0.615504,-0.2076 -0.400841,-0.3052 -0.518346,-0.8565 -0.276213,-1.2981 l 10.325717,-18.8675 -11.683896,0 c -0.360146,0 -0.693842,-0.1907 -0.876457,-0.5006 -0.182617,-0.3103 -0.188212,-0.6943 -0.01323,-1.0097 l 12.594944,-22.7289 c 0.179565,-0.32354 0.519871,-0.5239 0.890192,-0.5239 l 13.428164,0 c 0.359129,0 0.691297,0.18921 0.874932,0.49799 0.183124,0.30872 0.190245,0.69129 0.01831,1.00668 l -7.635813,14.00903 11.382248,0 c 0.414067,0 0.786931,0.2513 0.943095,0.6348 0.155657,0.3841 0.06307,0.8236 -0.233992,1.1126 l -28.41391,27.5878 c -0.195841,0.1907 -0.451708,0.2874 -0.708594,0.2874 z"
       id="path4194"
       style="fill:#fff500;fill-opacity:1" />
  </g>
</svg>
