<?xml version="1.0" encoding="UTF-8" standalone="no"?>
<!-- Created with Inkscape (http://www.inkscape.org/) -->

<svg
   width="64"
   height="64"
   viewBox="0 0 64.000001 64.000001"
   id="svg2"
   version="1.1"
   inkscape:version="1.1.1 (c3084ef, 2021-09-22)"
   sodipodi:docname="FlushCache.svg"
   xmlns:inkscape="http://www.inkscape.org/namespaces/inkscape"
   xmlns:sodipodi="http://sodipodi.sourceforge.net/DTD/sodipodi-0.dtd"
   xmlns="http://www.w3.org/2000/svg"
   xmlns:svg="http://www.w3.org/2000/svg"
   xmlns:rdf="http://www.w3.org/1999/02/22-rdf-syntax-ns#"
   xmlns:cc="http://creativecommons.org/ns#"
   xmlns:dc="http://purl.org/dc/elements/1.1/">
  <defs
     id="defs4" />
  <sodipodi:namedview
     id="base"
     pagecolor="#ffffff"
     bordercolor="#666666"
     borderopacity="1.0"
     inkscape:pageopacity="0.0"
     inkscape:pageshadow="2"
     inkscape:zoom="2"
     inkscape:cx="-75.75"
     inkscape:cy="19.75"
     inkscape:document-units="px"
     inkscape:current-layer="layer1"
     showgrid="false"
     units="px"
     inkscape:window-width="1536"
     inkscape:window-height="907"
     inkscape:window-x="0"
     inkscape:window-y="25"
     inkscape:window-maximized="1"
     inkscape:pagecheckerboard="0" />
  <metadata
     id="metadata7">
    <rdf:RDF>
      <cc:Work
         rdf:about="">
        <dc:format>image/svg+xml</dc:format>
        <dc:type
           rdf:resource="http://purl.org/dc/dcmitype/StillImage" />
      </cc:Work>
    </rdf:RDF>
  </metadata>
  <g
     inkscape:label="Layer 1"
     inkscape:groupmode="layer"
     id="layer1"
     transform="translate(0,-988.36216)">
    <path
       inkscape:connector-curvature="0"
       d="m 46.73056,1052.0469 c 7.07e-4,0 7.07e-4,0 0.0014,0 0.82067,0 1.665333,-0.041 2.512111,-0.1178 0.309074,-0.029 0.562402,-0.2556 0.625204,-0.559 0.0628,-0.3041 -0.07903,-0.6125 -0.350707,-0.762 -5.558397,-3.0597 -8.409219,-6.7375 -8.913758,-8.7465 9.190373,-2.9955 15.094538,-9.2977 15.094538,-16.1756 0,-9.9187 -12.065186,-17.9884 -26.894402,-17.9884 -14.829214,0 -26.8944024,8.0697 -26.8944024,17.9884 0,9.8691 11.9487554,17.9073 26.6798854,17.9849 0.301313,0.2208 0.730346,0.6223 1.215833,1.076 2.532574,2.3703 7.803772,7.3007 16.924286,7.3007 z m 0.0861,-1.4114 c -0.02823,0 -0.05645,0 -0.08469,0 -8.565168,8e-4 -13.376988,-4.5012 -15.962487,-6.9202 -0.682362,-0.638 -1.174906,-1.0993 -1.601822,-1.3556 -0.110081,-0.066 -0.234982,-0.1018 -0.36341,-0.1018 -14.05159,0 -25.4831048,-7.4347 -25.4831048,-16.5742 0,-9.1404 11.4315148,-16.5773 25.4831048,-16.5773 14.05159,0 25.48381,7.4376 25.48381,16.578 0,6.3875 -5.760919,12.2797 -14.675383,15.0091 -0.306957,0.095 -0.511596,0.3824 -0.498189,0.7028 0.09243,2.2948 2.752031,6.0262 7.70216,9.2383 z m -5.765154,-25.9303 c 0,1.5255 -1.232769,2.7611 -2.761204,2.7611 -1.524202,0 -2.7605,-1.2349 -2.7605,-2.7611 0,-1.5265 1.235591,-2.7635 2.7605,-2.7635 1.529141,0 2.761204,1.2377 2.761204,2.7635 z m -9.484629,0 c 0,1.5255 -1.237002,2.7611 -2.761911,2.7611 -1.524906,0 -2.760499,-1.2349 -2.760499,-2.7611 0,-1.5265 1.236298,-2.7628 2.760499,-2.7628 1.524202,0 2.761911,1.237 2.761911,2.7628 z m -9.48604,0 c 0,1.5255 -1.237003,2.7611 -2.761204,2.7611 -1.527025,0 -2.764734,-1.2349 -2.764734,-2.7611 0,-1.5265 1.237709,-2.7635 2.764734,-2.7635 1.524201,0 2.761204,1.2377 2.761204,2.7635 z"
       id="path4282"
       style="fill:#808080;fill-opacity:1;stroke:#ffffff;stroke-opacity:1" />
    <path
       inkscape:connector-curvature="0"
       d="m 31.850177,1037.9587 c -0.231017,0 -0.462577,-0.072 -0.657719,-0.2218 -0.428333,-0.3261 -0.553897,-0.9153 -0.295157,-1.3872 l 11.033917,-20.1615 -12.485248,0 c -0.384847,0 -0.74143,-0.2038 -0.93657,-0.5349 -0.195142,-0.3316 -0.201121,-0.7419 -0.01414,-1.079 l 13.458782,-24.28777 c 0.19188,-0.34573 0.555527,-0.55983 0.951247,-0.55983 l 14.349148,0 c 0.38376,0 0.738711,0.20219 0.93494,0.53215 0.195684,0.32989 0.203294,0.7387 0.01957,1.07572 l -8.159523,14.96983 12.162912,0 c 0.442466,0 0.840903,0.2686 1.007778,0.6784 0.166333,0.4104 0.0674,0.8801 -0.250041,1.1889 l -30.362708,29.4799 c -0.209273,0.2038 -0.482689,0.3071 -0.757193,0.3071 z"
       id="path4194"
       style="fill:#ffde00;fill-opacity:1" />
  </g>
</svg>
